{"title":"Girls Gone Dead 2012 UNRATED HDRip XviD HS","uid":7461686,"size":1975282280,"categoryP":"video","categoryS":"movies","magnet":"?xt=urn:btih:572abd504a3493fcefb30401c942445b5084f8ea&amp;dn=Girls+Gone+Dead+2012+UNRATED+HDRip+XviD+HS&amp;tr=udp%3A%2F%2Ftracker.openbittorrent.com%3A80&amp;tr=udp%3A%2F%2Fopen.demonii.com%3A1337&amp;tr=udp%3A%2F%2Ftracker.coppersurfer.tk%3A6969&amp;tr=udp%3A%2F%2Fexodus.desync.com%3A6969","seeders":4,"leechers":0,"uploader":"Hackulus","files":-1,"time":1342837477,"description":"\n\nGirls Gone Dead 2012 UNRATED HDRip XviD HS\n\n\nSource--- Who Else\n\n\n &lt;a href=&quot;\nhttp://www.imdb.com/title/tt1884318/&quot; rel=&quot;nofollow&quot; target=&quot;_NEW&quot;&gt;\nhttp://www.imdb.com/title/tt1884318/&lt;/a&gt;\n\n\n\nFormat                                   : AVI\nFormat/Info                              : Audio Video Interleave\nFormat profile                           : OpenDML\nFile size                                : 1.84 GiB\nDuration                                 : 1h 43mn\nOverall bit rate                         : 2 544 Kbps\nWriting application                      : Lavf52.103.0\n\nVideo\nID                                       : 1\nFormat                                   : MPEG-4 Visual\nFormat profile                           : Simple@L1\nFormat settings, BVOP                    : No\nFormat settings, QPel                    : No\nFormat settings, GMC                     : No warppoints\nFormat settings, Matrix                  : Default (H.263)\nCodec ID                                 : XVID\nDuration                                 : 1h 43mn\nBit rate                                 : 2 404 Kbps\nWidth                                    : 640 pixels\nHeight                                   : 274 pixels\nDisplay aspect ratio                     : 2.35:1\nFrame rate                               : 23.976 fps\nColor space                              : YUV\nChroma subsampling                       : 4:2:0\nBit depth                                : 8 bits\nScan type                                : Progressive\nCompression mode                         : Lossy\nBits/(Pixel*Frame)                       : 0.572\nStream size                              : 1.74 GiB (94%)\nWriting library                          : Lavc52.116.0\n\nAudio\nID                                       : 0\nFormat                                   : MPEG Audio\nFormat version                           : Version 1\nFormat profile                           : Layer 3\nMode                                     : Joint stereo\nMode extension                           : MS Stereo\nCodec ID                                 : 55\nCodec ID/Hint                            : MP3\nDuration                                 : 1h 43mn\nBit rate mode                            : Constant\nBit rate                                 : 128 Kbps\nChannel(s)                               : 2 channels\nSampling rate                            : 44.1 KHz\nCompression mode                         : Lossy\nStream size                              : 94.8 MiB (5%)\nAlignment                                : Aligned on interleaves\nInterleave, duration                     : 42 ms (1.00 video frame)\nWriting library                          : LAME3.98.4","torrent":{"xt":"urn:btih:572abd504a3493fcefb30401c942445b5084f8ea","amp;dn":"Girls+Gone+Dead+2012+UNRATED+HDRip+XviD+HS","amp;tr":["udp%3A%2F%2Ftracker.openbittorrent.com%3A80","udp%3A%2F%2Fopen.demonii.com%3A1337","udp%3A%2F%2Ftracker.coppersurfer.tk%3A6969","udp%3A%2F%2Fexodus.desync.com%3A6969"],"infoHash":"572abd504a3493fcefb30401c942445b5084f8ea","infoHashBuffer":{"type":"Buffer","data":[87,42,189,80,74,52,147,252,239,179,4,1,201,66,68,91,80,132,248,234]},"announce":[],"urlList":[]}}